<mxfile host="app.diagrams.net" agent="Mozilla/5.0 (Windows NT 10.0; Win64; x64) AppleWebKit/537.36 (KHTML, like Gecko) Chrome/130.0.0.0 Safari/537.36" version="24.8.1">
  <diagram name="Page-1" id="XjKNdMhh2U0nfwWWohRo">
    <mxGraphModel dx="3430" dy="1044" grid="1" gridSize="10" guides="1" tooltips="1" connect="1" arrows="1" fold="1" page="1" pageScale="1" pageWidth="850" pageHeight="1100" math="0" shadow="0">
      <root>
        <mxCell id="0" />
        <mxCell id="1" parent="0" />
        <mxCell id="abfaj3LT7T33ILpD5jAN-10" value="" style="edgeStyle=orthogonalEdgeStyle;rounded=0;orthogonalLoop=1;jettySize=auto;html=1;" edge="1" parent="1" source="MJ7d8MGrej0oFUK3ACLP-1" target="abfaj3LT7T33ILpD5jAN-9">
          <mxGeometry relative="1" as="geometry" />
        </mxCell>
        <mxCell id="MJ7d8MGrej0oFUK3ACLP-1" value="Початок" style="ellipse;whiteSpace=wrap;html=1;" parent="1" vertex="1">
          <mxGeometry x="120" y="90" width="130" height="50" as="geometry" />
        </mxCell>
        <mxCell id="MJ7d8MGrej0oFUK3ACLP-2" value="&lt;font style=&quot;font-size: 24px;&quot;&gt;Main&lt;/font&gt;" style="text;html=1;align=center;verticalAlign=middle;resizable=0;points=[];autosize=1;strokeColor=none;fillColor=none;" parent="1" vertex="1">
          <mxGeometry x="140" y="30" width="80" height="40" as="geometry" />
        </mxCell>
        <mxCell id="MJ7d8MGrej0oFUK3ACLP-3" value="&lt;font style=&quot;font-size: 24px;&quot;&gt;Max-min functions&lt;/font&gt;" style="text;html=1;align=center;verticalAlign=middle;resizable=0;points=[];autosize=1;strokeColor=none;fillColor=none;" parent="1" vertex="1">
          <mxGeometry x="660" y="30" width="220" height="40" as="geometry" />
        </mxCell>
        <mxCell id="abfaj3LT7T33ILpD5jAN-12" value="" style="edgeStyle=orthogonalEdgeStyle;rounded=0;orthogonalLoop=1;jettySize=auto;html=1;" edge="1" parent="1" source="abfaj3LT7T33ILpD5jAN-9" target="abfaj3LT7T33ILpD5jAN-11">
          <mxGeometry relative="1" as="geometry" />
        </mxCell>
        <mxCell id="abfaj3LT7T33ILpD5jAN-9" value="Користувач задає висоти чотирьом ніжкам" style="shape=parallelogram;perimeter=parallelogramPerimeter;whiteSpace=wrap;html=1;fixedSize=1;" vertex="1" parent="1">
          <mxGeometry x="95" y="190" width="180" height="60" as="geometry" />
        </mxCell>
        <mxCell id="abfaj3LT7T33ILpD5jAN-14" value="" style="edgeStyle=orthogonalEdgeStyle;rounded=0;orthogonalLoop=1;jettySize=auto;html=1;" edge="1" parent="1" source="abfaj3LT7T33ILpD5jAN-11" target="abfaj3LT7T33ILpD5jAN-13">
          <mxGeometry relative="1" as="geometry" />
        </mxCell>
        <mxCell id="abfaj3LT7T33ILpD5jAN-11" value="беремо першу ніжку" style="rounded=1;whiteSpace=wrap;html=1;" vertex="1" parent="1">
          <mxGeometry x="130" y="290" width="110" height="40" as="geometry" />
        </mxCell>
        <mxCell id="abfaj3LT7T33ILpD5jAN-16" value="" style="edgeStyle=orthogonalEdgeStyle;rounded=0;orthogonalLoop=1;jettySize=auto;html=1;" edge="1" parent="1" source="abfaj3LT7T33ILpD5jAN-13" target="abfaj3LT7T33ILpD5jAN-15">
          <mxGeometry relative="1" as="geometry" />
        </mxCell>
        <mxCell id="abfaj3LT7T33ILpD5jAN-13" value="Запрашуємо скільки користувач хоче від неї відрізати" style="shape=parallelogram;perimeter=parallelogramPerimeter;whiteSpace=wrap;html=1;fixedSize=1;" vertex="1" parent="1">
          <mxGeometry x="102.5" y="400" width="165" height="60" as="geometry" />
        </mxCell>
        <mxCell id="abfaj3LT7T33ILpD5jAN-18" style="edgeStyle=orthogonalEdgeStyle;rounded=0;orthogonalLoop=1;jettySize=auto;html=1;entryX=0.5;entryY=0;entryDx=0;entryDy=0;" edge="1" parent="1" source="abfaj3LT7T33ILpD5jAN-15" target="abfaj3LT7T33ILpD5jAN-17">
          <mxGeometry relative="1" as="geometry" />
        </mxCell>
        <mxCell id="abfaj3LT7T33ILpD5jAN-21" value="Так" style="edgeLabel;html=1;align=center;verticalAlign=middle;resizable=0;points=[];" vertex="1" connectable="0" parent="abfaj3LT7T33ILpD5jAN-18">
          <mxGeometry x="-0.3532" y="1" relative="1" as="geometry">
            <mxPoint as="offset" />
          </mxGeometry>
        </mxCell>
        <mxCell id="abfaj3LT7T33ILpD5jAN-24" style="edgeStyle=orthogonalEdgeStyle;rounded=0;orthogonalLoop=1;jettySize=auto;html=1;entryX=0;entryY=0.5;entryDx=0;entryDy=0;" edge="1" parent="1" source="abfaj3LT7T33ILpD5jAN-15" target="abfaj3LT7T33ILpD5jAN-23">
          <mxGeometry relative="1" as="geometry" />
        </mxCell>
        <mxCell id="abfaj3LT7T33ILpD5jAN-25" value="Ні" style="edgeLabel;html=1;align=center;verticalAlign=middle;resizable=0;points=[];" vertex="1" connectable="0" parent="abfaj3LT7T33ILpD5jAN-24">
          <mxGeometry x="-0.2706" y="1" relative="1" as="geometry">
            <mxPoint as="offset" />
          </mxGeometry>
        </mxCell>
        <mxCell id="abfaj3LT7T33ILpD5jAN-15" value="Хочемо&amp;nbsp;&lt;div&gt;відрізати&amp;nbsp;&lt;span style=&quot;background-color: initial;&quot;&gt;більше&amp;nbsp;&lt;/span&gt;&lt;div&gt;&lt;div&gt;ніж довжина&amp;nbsp;&lt;/div&gt;&lt;div&gt;ніжки?&lt;/div&gt;&lt;/div&gt;&lt;/div&gt;" style="rhombus;whiteSpace=wrap;html=1;" vertex="1" parent="1">
          <mxGeometry x="112.5" y="500" width="145" height="140" as="geometry" />
        </mxCell>
        <mxCell id="abfaj3LT7T33ILpD5jAN-20" style="edgeStyle=orthogonalEdgeStyle;rounded=0;orthogonalLoop=1;jettySize=auto;html=1;entryX=0.5;entryY=0;entryDx=0;entryDy=0;" edge="1" parent="1" source="abfaj3LT7T33ILpD5jAN-17" target="abfaj3LT7T33ILpD5jAN-19">
          <mxGeometry relative="1" as="geometry" />
        </mxCell>
        <mxCell id="abfaj3LT7T33ILpD5jAN-17" value="Виводимо &quot;ERROR&quot;" style="shape=parallelogram;perimeter=parallelogramPerimeter;whiteSpace=wrap;html=1;fixedSize=1;" vertex="1" parent="1">
          <mxGeometry x="-80" y="620" width="150" height="60" as="geometry" />
        </mxCell>
        <mxCell id="abfaj3LT7T33ILpD5jAN-19" value="Кінець" style="ellipse;whiteSpace=wrap;html=1;" vertex="1" parent="1">
          <mxGeometry x="-65" y="720" width="120" height="60" as="geometry" />
        </mxCell>
        <mxCell id="abfaj3LT7T33ILpD5jAN-28" style="edgeStyle=orthogonalEdgeStyle;rounded=0;orthogonalLoop=1;jettySize=auto;html=1;entryX=1;entryY=0.5;entryDx=0;entryDy=0;" edge="1" parent="1" source="abfaj3LT7T33ILpD5jAN-22" target="abfaj3LT7T33ILpD5jAN-13">
          <mxGeometry relative="1" as="geometry" />
        </mxCell>
        <mxCell id="abfaj3LT7T33ILpD5jAN-22" value="беремо наступну" style="rounded=1;whiteSpace=wrap;html=1;" vertex="1" parent="1">
          <mxGeometry x="317.5" y="410" width="110" height="40" as="geometry" />
        </mxCell>
        <mxCell id="abfaj3LT7T33ILpD5jAN-26" style="edgeStyle=orthogonalEdgeStyle;rounded=0;orthogonalLoop=1;jettySize=auto;html=1;entryX=0.5;entryY=1;entryDx=0;entryDy=0;" edge="1" parent="1" source="abfaj3LT7T33ILpD5jAN-23" target="abfaj3LT7T33ILpD5jAN-22">
          <mxGeometry relative="1" as="geometry" />
        </mxCell>
        <mxCell id="abfaj3LT7T33ILpD5jAN-27" value="Ні" style="edgeLabel;html=1;align=center;verticalAlign=middle;resizable=0;points=[];" vertex="1" connectable="0" parent="abfaj3LT7T33ILpD5jAN-26">
          <mxGeometry x="0.1933" y="-1" relative="1" as="geometry">
            <mxPoint x="-1" y="10" as="offset" />
          </mxGeometry>
        </mxCell>
        <mxCell id="abfaj3LT7T33ILpD5jAN-30" style="edgeStyle=orthogonalEdgeStyle;rounded=0;orthogonalLoop=1;jettySize=auto;html=1;entryX=0.5;entryY=0;entryDx=0;entryDy=0;" edge="1" parent="1" source="abfaj3LT7T33ILpD5jAN-23" target="abfaj3LT7T33ILpD5jAN-29">
          <mxGeometry relative="1" as="geometry" />
        </mxCell>
        <mxCell id="abfaj3LT7T33ILpD5jAN-31" value="Так" style="edgeLabel;html=1;align=center;verticalAlign=middle;resizable=0;points=[];" vertex="1" connectable="0" parent="abfaj3LT7T33ILpD5jAN-30">
          <mxGeometry x="-0.4222" y="-1" relative="1" as="geometry">
            <mxPoint as="offset" />
          </mxGeometry>
        </mxCell>
        <mxCell id="abfaj3LT7T33ILpD5jAN-23" value="Це була остання&amp;nbsp;&lt;div&gt;ніжка?&lt;/div&gt;" style="rhombus;whiteSpace=wrap;html=1;" vertex="1" parent="1">
          <mxGeometry x="300" y="500" width="145" height="140" as="geometry" />
        </mxCell>
        <mxCell id="abfaj3LT7T33ILpD5jAN-33" style="edgeStyle=orthogonalEdgeStyle;rounded=0;orthogonalLoop=1;jettySize=auto;html=1;entryX=0.5;entryY=0;entryDx=0;entryDy=0;" edge="1" parent="1" source="abfaj3LT7T33ILpD5jAN-29" target="abfaj3LT7T33ILpD5jAN-32">
          <mxGeometry relative="1" as="geometry" />
        </mxCell>
        <mxCell id="abfaj3LT7T33ILpD5jAN-29" value="беремо першу ніжку" style="rounded=1;whiteSpace=wrap;html=1;" vertex="1" parent="1">
          <mxGeometry x="317.5" y="700" width="110" height="40" as="geometry" />
        </mxCell>
        <mxCell id="abfaj3LT7T33ILpD5jAN-37" value="" style="edgeStyle=orthogonalEdgeStyle;rounded=0;orthogonalLoop=1;jettySize=auto;html=1;" edge="1" parent="1" source="abfaj3LT7T33ILpD5jAN-32" target="abfaj3LT7T33ILpD5jAN-35">
          <mxGeometry relative="1" as="geometry" />
        </mxCell>
        <mxCell id="abfaj3LT7T33ILpD5jAN-32" value="Відрізаємо відповідну довжину" style="rounded=1;whiteSpace=wrap;html=1;" vertex="1" parent="1">
          <mxGeometry x="313.75" y="790" width="117.5" height="50" as="geometry" />
        </mxCell>
        <mxCell id="abfaj3LT7T33ILpD5jAN-46" style="edgeStyle=orthogonalEdgeStyle;rounded=0;orthogonalLoop=1;jettySize=auto;html=1;entryX=0.5;entryY=0;entryDx=0;entryDy=0;" edge="1" parent="1" source="abfaj3LT7T33ILpD5jAN-35" target="abfaj3LT7T33ILpD5jAN-38">
          <mxGeometry relative="1" as="geometry" />
        </mxCell>
        <mxCell id="abfaj3LT7T33ILpD5jAN-35" value="max = getMax(довжини)&lt;div&gt;min = getMin(довжини)&lt;/div&gt;" style="shape=process;whiteSpace=wrap;html=1;backgroundOutline=1;" vertex="1" parent="1">
          <mxGeometry x="284.38" y="890" width="176.25" height="60" as="geometry" />
        </mxCell>
        <mxCell id="abfaj3LT7T33ILpD5jAN-42" style="edgeStyle=orthogonalEdgeStyle;rounded=0;orthogonalLoop=1;jettySize=auto;html=1;entryX=0.5;entryY=0;entryDx=0;entryDy=0;" edge="1" parent="1" source="abfaj3LT7T33ILpD5jAN-38" target="abfaj3LT7T33ILpD5jAN-40">
          <mxGeometry relative="1" as="geometry" />
        </mxCell>
        <mxCell id="abfaj3LT7T33ILpD5jAN-45" value="Так" style="edgeLabel;html=1;align=center;verticalAlign=middle;resizable=0;points=[];" vertex="1" connectable="0" parent="abfaj3LT7T33ILpD5jAN-42">
          <mxGeometry x="-0.3836" y="-1" relative="1" as="geometry">
            <mxPoint as="offset" />
          </mxGeometry>
        </mxCell>
        <mxCell id="abfaj3LT7T33ILpD5jAN-44" style="edgeStyle=orthogonalEdgeStyle;rounded=0;orthogonalLoop=1;jettySize=auto;html=1;entryX=1;entryY=0.5;entryDx=0;entryDy=0;" edge="1" parent="1" source="abfaj3LT7T33ILpD5jAN-38" target="abfaj3LT7T33ILpD5jAN-43">
          <mxGeometry relative="1" as="geometry" />
        </mxCell>
        <mxCell id="abfaj3LT7T33ILpD5jAN-48" value="Ні" style="edgeLabel;html=1;align=center;verticalAlign=middle;resizable=0;points=[];" vertex="1" connectable="0" parent="abfaj3LT7T33ILpD5jAN-44">
          <mxGeometry x="0.1304" y="-3" relative="1" as="geometry">
            <mxPoint x="8" y="3" as="offset" />
          </mxGeometry>
        </mxCell>
        <mxCell id="abfaj3LT7T33ILpD5jAN-38" value="Найкоротша&amp;nbsp;&lt;div&gt;ніжка принаймні в&amp;nbsp;&lt;/div&gt;&lt;div&gt;2 рази менша за&amp;nbsp;&lt;div&gt;найдовшу?&lt;/div&gt;&lt;/div&gt;" style="rhombus;whiteSpace=wrap;html=1;" vertex="1" parent="1">
          <mxGeometry x="289" y="980" width="167" height="160" as="geometry" />
        </mxCell>
        <mxCell id="abfaj3LT7T33ILpD5jAN-39" style="edgeStyle=orthogonalEdgeStyle;rounded=0;orthogonalLoop=1;jettySize=auto;html=1;entryX=0.5;entryY=0;entryDx=0;entryDy=0;" edge="1" parent="1" source="abfaj3LT7T33ILpD5jAN-40" target="abfaj3LT7T33ILpD5jAN-41">
          <mxGeometry relative="1" as="geometry" />
        </mxCell>
        <mxCell id="abfaj3LT7T33ILpD5jAN-40" value="Виводимо &quot;NO&quot;" style="shape=parallelogram;perimeter=parallelogramPerimeter;whiteSpace=wrap;html=1;fixedSize=1;" vertex="1" parent="1">
          <mxGeometry x="480" y="1120" width="150" height="60" as="geometry" />
        </mxCell>
        <mxCell id="abfaj3LT7T33ILpD5jAN-41" value="Кінець" style="ellipse;whiteSpace=wrap;html=1;" vertex="1" parent="1">
          <mxGeometry x="495" y="1220" width="120" height="60" as="geometry" />
        </mxCell>
        <mxCell id="abfaj3LT7T33ILpD5jAN-52" style="edgeStyle=orthogonalEdgeStyle;rounded=0;orthogonalLoop=1;jettySize=auto;html=1;entryX=0.5;entryY=0;entryDx=0;entryDy=0;" edge="1" parent="1" source="abfaj3LT7T33ILpD5jAN-43" target="abfaj3LT7T33ILpD5jAN-50">
          <mxGeometry relative="1" as="geometry" />
        </mxCell>
        <mxCell id="abfaj3LT7T33ILpD5jAN-53" value="Так" style="edgeLabel;html=1;align=center;verticalAlign=middle;resizable=0;points=[];" vertex="1" connectable="0" parent="abfaj3LT7T33ILpD5jAN-52">
          <mxGeometry x="-0.4133" relative="1" as="geometry">
            <mxPoint as="offset" />
          </mxGeometry>
        </mxCell>
        <mxCell id="abfaj3LT7T33ILpD5jAN-56" style="edgeStyle=orthogonalEdgeStyle;rounded=0;orthogonalLoop=1;jettySize=auto;html=1;entryX=0.5;entryY=1;entryDx=0;entryDy=0;" edge="1" parent="1" source="abfaj3LT7T33ILpD5jAN-43" target="abfaj3LT7T33ILpD5jAN-55">
          <mxGeometry relative="1" as="geometry" />
        </mxCell>
        <mxCell id="abfaj3LT7T33ILpD5jAN-57" value="Ні" style="edgeLabel;html=1;align=center;verticalAlign=middle;resizable=0;points=[];" vertex="1" connectable="0" parent="abfaj3LT7T33ILpD5jAN-56">
          <mxGeometry x="-0.1278" y="3" relative="1" as="geometry">
            <mxPoint x="3" y="-4" as="offset" />
          </mxGeometry>
        </mxCell>
        <mxCell id="abfaj3LT7T33ILpD5jAN-43" value="Це була остання&amp;nbsp;&lt;div&gt;ніжка?&lt;/div&gt;" style="rhombus;whiteSpace=wrap;html=1;" vertex="1" parent="1">
          <mxGeometry x="75" y="990" width="145" height="140" as="geometry" />
        </mxCell>
        <mxCell id="abfaj3LT7T33ILpD5jAN-49" style="edgeStyle=orthogonalEdgeStyle;rounded=0;orthogonalLoop=1;jettySize=auto;html=1;entryX=0.5;entryY=0;entryDx=0;entryDy=0;" edge="1" parent="1" source="abfaj3LT7T33ILpD5jAN-50" target="abfaj3LT7T33ILpD5jAN-51">
          <mxGeometry relative="1" as="geometry" />
        </mxCell>
        <mxCell id="abfaj3LT7T33ILpD5jAN-50" value="Виводимо &quot;YES&quot;" style="shape=parallelogram;perimeter=parallelogramPerimeter;whiteSpace=wrap;html=1;fixedSize=1;" vertex="1" parent="1">
          <mxGeometry x="72.5" y="1180" width="150" height="60" as="geometry" />
        </mxCell>
        <mxCell id="abfaj3LT7T33ILpD5jAN-51" value="Кінець" style="ellipse;whiteSpace=wrap;html=1;" vertex="1" parent="1">
          <mxGeometry x="87.5" y="1280" width="120" height="60" as="geometry" />
        </mxCell>
        <mxCell id="abfaj3LT7T33ILpD5jAN-58" style="edgeStyle=orthogonalEdgeStyle;rounded=0;orthogonalLoop=1;jettySize=auto;html=1;entryX=0;entryY=0.5;entryDx=0;entryDy=0;" edge="1" parent="1" source="abfaj3LT7T33ILpD5jAN-55" target="abfaj3LT7T33ILpD5jAN-32">
          <mxGeometry relative="1" as="geometry">
            <Array as="points">
              <mxPoint x="148" y="815" />
            </Array>
          </mxGeometry>
        </mxCell>
        <mxCell id="abfaj3LT7T33ILpD5jAN-55" value="беремо наступну" style="rounded=1;whiteSpace=wrap;html=1;" vertex="1" parent="1">
          <mxGeometry x="92.5" y="890" width="110" height="40" as="geometry" />
        </mxCell>
        <mxCell id="abfaj3LT7T33ILpD5jAN-61" style="edgeStyle=orthogonalEdgeStyle;rounded=0;orthogonalLoop=1;jettySize=auto;html=1;entryX=0.5;entryY=0;entryDx=0;entryDy=0;" edge="1" parent="1" source="abfaj3LT7T33ILpD5jAN-59" target="abfaj3LT7T33ILpD5jAN-60">
          <mxGeometry relative="1" as="geometry" />
        </mxCell>
        <mxCell id="abfaj3LT7T33ILpD5jAN-59" value="getMax(heights)" style="ellipse;whiteSpace=wrap;html=1;" vertex="1" parent="1">
          <mxGeometry x="610" y="90" width="130" height="50" as="geometry" />
        </mxCell>
        <mxCell id="abfaj3LT7T33ILpD5jAN-63" style="edgeStyle=orthogonalEdgeStyle;rounded=0;orthogonalLoop=1;jettySize=auto;html=1;" edge="1" parent="1" source="abfaj3LT7T33ILpD5jAN-60" target="abfaj3LT7T33ILpD5jAN-62">
          <mxGeometry relative="1" as="geometry" />
        </mxCell>
        <mxCell id="abfaj3LT7T33ILpD5jAN-60" value="Знакодимо максимальну довжину ніжки" style="rounded=1;whiteSpace=wrap;html=1;" vertex="1" parent="1">
          <mxGeometry x="615" y="180" width="120" height="60" as="geometry" />
        </mxCell>
        <mxCell id="abfaj3LT7T33ILpD5jAN-62" value="return max" style="ellipse;whiteSpace=wrap;html=1;" vertex="1" parent="1">
          <mxGeometry x="610" y="285" width="130" height="50" as="geometry" />
        </mxCell>
        <mxCell id="abfaj3LT7T33ILpD5jAN-64" style="edgeStyle=orthogonalEdgeStyle;rounded=0;orthogonalLoop=1;jettySize=auto;html=1;entryX=0.5;entryY=0;entryDx=0;entryDy=0;" edge="1" parent="1" source="abfaj3LT7T33ILpD5jAN-65" target="abfaj3LT7T33ILpD5jAN-67">
          <mxGeometry relative="1" as="geometry" />
        </mxCell>
        <mxCell id="abfaj3LT7T33ILpD5jAN-65" value="getMin(heights)" style="ellipse;whiteSpace=wrap;html=1;" vertex="1" parent="1">
          <mxGeometry x="800" y="90" width="130" height="50" as="geometry" />
        </mxCell>
        <mxCell id="abfaj3LT7T33ILpD5jAN-66" style="edgeStyle=orthogonalEdgeStyle;rounded=0;orthogonalLoop=1;jettySize=auto;html=1;" edge="1" parent="1" source="abfaj3LT7T33ILpD5jAN-67" target="abfaj3LT7T33ILpD5jAN-68">
          <mxGeometry relative="1" as="geometry" />
        </mxCell>
        <mxCell id="abfaj3LT7T33ILpD5jAN-67" value="Знакодимо мінімальну довжину ніжки" style="rounded=1;whiteSpace=wrap;html=1;" vertex="1" parent="1">
          <mxGeometry x="805" y="180" width="120" height="60" as="geometry" />
        </mxCell>
        <mxCell id="abfaj3LT7T33ILpD5jAN-68" value="return min" style="ellipse;whiteSpace=wrap;html=1;" vertex="1" parent="1">
          <mxGeometry x="800" y="285" width="130" height="50" as="geometry" />
        </mxCell>
      </root>
    </mxGraphModel>
  </diagram>
</mxfile>
